<svg width="800" height="600" xmlns="http://www.w3.org/2000/svg">
    <defs>
        <!-- Corporate Dusk Gradient -->
        <linearGradient id="sky" x1="0%" y1="0%" x2="0%" y2="100%">
            <stop offset="0%" style="stop-color:#2b5876;stop-opacity:1" />
            <stop offset="100%" style="stop-color:#4e4376;stop-opacity:1" />
        </linearGradient>
        
        <!-- Window Light Gradient -->
        <linearGradient id="windowLight" x1="0%" y1="0%" x2="0%" y2="100%">
            <stop offset="0%" style="stop-color:#fdfbfb;stop-opacity:0.8" />
            <stop offset="100%" style="stop-color:#ebedee;stop-opacity:0.2" />
        </linearGradient>

        <!-- The Logo Symbol -->
        <symbol id="corp-logo" viewBox="0 0 210 210" fill="currentColor">
            <path d="M190.176 0L105.002 85.1804L19.8213 0H0V19.8213L85.1804 105.002L0 190.176V209.997H19.8213L105.002 124.823L190.176 209.997H209.997V190.176L124.823 105.002L209.997 19.8213V0H190.176Z"></path>
            <path d="M123.357 0L105 18.3628L86.6372 0H48.3554L105 56.6384L161.638 0H123.357Z"></path>
            <path d="M48.3554 209.995H86.6372L105 191.639L123.357 209.995H161.638L105 153.357L48.3554 209.995Z"></path>
            <path d="M191.643 105L210 86.6372V48.3554L153.362 105L210 161.638V123.357L191.643 105Z"></path>
            <path d="M0 86.6372L18.3628 105L0 123.357V161.638L56.6384 105L0 48.3554V86.6372Z"></path>
        </symbol>

        <!-- Repeating Pattern -->
        <pattern id="logoPattern" x="0" y="0" width="100" height="100" patternUnits="userSpaceOnUse">
            <use href="#corp-logo" x="0" y="0" width="100" height="100" fill="#ffffff" opacity="0.05" />
        </pattern>
    </defs>
    
    <!-- Background Sky -->
    <rect width="100%" height="100%" fill="url(#sky)"/>
    
    <!-- Infinite Logo Pattern Overlay -->
    <rect width="100%" height="100%" fill="url(#logoPattern)" />

    <!-- Far Buildings (Layer 1 - Darker/Further) -->
    <g fill="#1e2a3a" opacity="0.6">
        <path d="M0 600 L0 350 L80 350 L80 380 L120 380 L120 600 Z" />
        <path d="M100 600 L100 400 L180 400 L180 250 L220 250 L220 600 Z" />
        <path d="M200 600 L200 450 L300 450 L300 600 Z" />
        <path d="M280 600 L280 300 L350 300 L350 320 L380 320 L380 600 Z" />
        <path d="M380 600 L380 420 L450 420 L450 600 Z" />
        <path d="M440 600 L440 280 L500 280 L500 600 Z" />
        <path d="M500 600 L500 400 L600 400 L600 600 Z" />
        <path d="M580 600 L580 320 L650 320 L650 600 Z" />
        <path d="M650 600 L650 450 L750 450 L750 600 Z" />
        <path d="M740 600 L740 300 L800 300 L800 600 Z" />
    </g>

    <!-- Near Buildings (Layer 2 - Main Silhouette) -->
    <g fill="#0f172a">
        <path d="M0 600 L0 500 L50 500 L50 480 L100 480 L100 600 Z" />
        <path d="M80 600 L80 420 L150 420 L150 600 Z" />
        <path d="M140 600 L140 550 L200 550 L200 600 Z" />
        <path d="M180 600 L180 350 L260 350 L260 380 L280 380 L280 600 Z" />
        <path d="M280 600 L280 480 L350 480 L350 600 Z" />
        <path d="M340 600 L340 400 L420 400 L420 600 Z" />
        <path d="M410 600 L410 520 L480 520 L480 600 Z" />
        <path d="M480 600 L480 300 L560 300 L560 330 L580 330 L580 600 Z" />
        <path d="M580 600 L580 500 L650 500 L650 600 Z" />
        <path d="M640 600 L640 420 L720 420 L720 600 Z" />
        <path d="M710 600 L710 550 L800 550 L800 600 Z" />
    </g>

    <!-- Windows (Lit up randomly) -->
    <g fill="url(#windowLight)">
        <!-- Building 1 -->
        <rect x="20" y="520" width="10" height="10" />
        <rect x="20" y="540" width="10" height="10" />
        
        <!-- Building 2 -->
        <rect x="100" y="440" width="30" height="5" />
        <rect x="100" y="460" width="30" height="5" />
        <rect x="100" y="480" width="30" height="5" />

        <!-- Skyscraper -->
        <rect x="200" y="370" width="40" height="200" opacity="0.1" /> <!-- Glass reflection -->
        <rect x="200" y="380" width="10" height="10" />
        <rect x="230" y="400" width="10" height="10" />
        <rect x="200" y="450" width="10" height="10" />

        <!-- Tall one -->
        <rect x="500" y="320" width="40" height="5" />
        <rect x="500" y="340" width="40" height="5" />
        <rect x="500" y="360" width="40" height="5" />
        <rect x="500" y="450" width="40" height="5" />
        
        <!-- Wide one -->
        <rect x="660" y="440" width="10" height="10" />
        <rect x="690" y="440" width="10" height="10" />
        <rect x="660" y="470" width="10" height="10" />
    </g>
</svg>